<svg xmlns="http://www.w3.org/2000/svg" width="640" height="420" viewBox="0 0 640 420">
  <defs>
    <linearGradient id="g" x1="0" y1="0" x2="1" y2="1">
      <stop offset="0" stop-color="#0A3A64"/>
      <stop offset="1" stop-color="#1B6CA8"/>
    </linearGradient>
  </defs>
  <rect width="640" height="420" fill="url(#g)"/>
  <circle cx="530" cy="70" r="130" fill="#ffffff" opacity="0.08"/>
  <circle cx="90" cy="360" r="160" fill="#ffffff" opacity="0.07"/>
  <g transform="translate(272,162) scale(4)" fill="#ffffff" opacity="0.92">
    <path d="M20 6h-4V4c0-1.11-.89-2-2-2h-4c-1.11 0-2 .89-2 2v2H4c-1.11 0-2 .89-2 2v11c0 1.11.89 2 2 2h16c1.11 0 2-.89 2-2V8c0-1.11-.89-2-2-2zm-6 0h-4V4h4v2z"/>
  </g>
</svg>
